<svg width="512" height="512" viewBox="0 0 111 111" fill="none" xmlns="http://www.w3.org/2000/svg">
<path d="M87.6438 68.3799C85.4654 63.8383 77.6722 57.5342 70.1429 51.4431C65.9433 48.0483 61.975 44.8386 59.4452 42.3088C58.8115 41.6706 57.8635 41.467 57.0264 41.7677C55.4679 42.332 54.5057 42.7667 53.7474 43.1042C52.5912 43.6222 52.2027 43.798 50.6439 43.9552C49.9547 44.0245 49.3351 44.3946 48.9512 44.968C45.6812 49.8566 42.2957 49.4403 40.0341 48.682C39.3126 48.4416 39.1832 48.1315 39.1138 47.8356C38.6282 45.8053 41.0656 41.0785 44.2244 37.9195C51.7401 30.3993 55.6157 28.5168 63.802 32.1753C73.0889 36.3285 82.3945 39.58 82.4871 39.6123C83.7035 40.0331 85.0123 39.3948 85.4331 38.1877C85.8494 36.9806 85.2157 35.6625 84.0085 35.2417C83.916 35.2094 74.7955 32.0227 65.6935 27.948C55.0885 23.2073 49.2701 26.3291 40.959 34.645C37.7955 37.8085 33.4988 44.2095 34.6088 48.904C35.0851 50.902 36.4912 52.3821 38.5816 53.071C43.8218 54.8009 48.6039 53.145 52.1652 48.4184C53.6359 48.1918 54.4361 47.8588 55.6385 47.3177C56.0732 47.1234 56.582 46.8969 57.2573 46.6239C59.9029 49.1076 63.4733 51.9981 67.2334 55.0367C74.0322 60.5358 81.7421 66.7704 83.4765 70.3779C84.3322 72.1585 83.4117 73.3194 82.7873 73.8512C81.8716 74.6376 80.6183 74.8873 79.9384 74.4108C79.1891 73.8974 78.2133 73.8651 77.4409 74.3275C76.6639 74.79 76.2292 75.6641 76.3263 76.5614C76.4835 78.0322 75.1376 78.874 74.5549 79.1654C73.0748 79.9146 71.5301 79.7852 70.9519 79.2486C70.3044 78.6474 69.3747 78.4716 68.5516 78.7769C67.7284 79.0867 67.1547 79.8452 67.0715 80.7239C66.9327 82.2408 65.8089 83.6977 64.3427 84.2666C63.6351 84.5348 62.6083 84.6967 61.688 83.8549C61.1146 83.337 60.3189 83.138 59.5744 83.3183C58.8206 83.5033 58.2147 84.0491 57.9511 84.7752C57.8633 85.0065 57.6642 85.5615 55.4997 85.5615C53.9596 85.5615 51.1892 84.5209 49.8342 83.6236C48.2108 82.5552 38.0311 74.961 29.2391 67.5979C28.0043 66.5573 25.8675 64.328 23.9805 62.3577C22.3062 60.6095 20.7754 59.0232 19.9891 58.3572C19.004 57.5247 17.5471 57.6496 16.7285 58.6301C15.9053 59.6059 16.0254 61.0676 17.0014 61.8908C17.7183 62.4967 19.1058 63.9627 20.6366 65.5583C22.6995 67.7135 24.8314 69.9428 26.2653 71.1454C34.8772 78.3558 45.2279 86.1397 47.2905 87.4947C48.9926 88.614 52.6601 90.1864 55.5 90.1864C57.78 90.1864 59.533 89.6638 60.7493 88.6418C62.3772 89.2755 64.2273 89.28 66.0079 88.5863C68.1123 87.7722 69.8419 86.1304 70.8225 84.1417C72.6447 84.5302 74.7307 84.2573 76.6268 83.3047C78.4815 82.3705 79.8226 80.9414 80.4886 79.2716C82.3294 79.3687 84.2255 78.7166 85.7934 77.3707C88.4485 75.1 89.1791 71.5666 87.6438 68.3799Z" fill="black"/>
<path d="M46.2499 30.0617H25.4374C24.161 30.0617 23.1249 31.0978 23.1249 32.3743C23.1249 33.6508 24.161 34.6868 25.4374 34.6868H46.2499C47.5264 34.6868 48.5625 33.6508 48.5625 32.3743C48.5625 31.0978 47.5264 30.0617 46.2499 30.0617Z" fill="black"/>
<path d="M94.4194 63.4589C93.7024 62.3998 92.2688 62.1084 91.2097 62.8299L84.448 67.3716C83.389 68.0838 83.1067 69.5222 83.8191 70.5813C84.2677 71.2427 84.9985 71.6035 85.7432 71.6035C86.1826 71.6035 86.6312 71.4786 87.029 71.2104L93.7907 66.6688C94.8495 65.9564 95.1316 64.5181 94.4194 63.4589Z" fill="black"/>
<path d="M80.0634 74.4943C78.4077 73.19 71.003 65.6097 66.4242 60.8367C65.5408 59.9116 64.0748 59.8793 63.1543 60.7673C62.2292 61.6508 62.2015 63.1168 63.0849 64.0373C64.2736 65.2767 74.7583 76.2057 77.1958 78.1297C77.6166 78.4627 78.1254 78.6247 78.6249 78.6247C79.3048 78.6247 79.9847 78.3194 80.4471 77.7412C81.2382 76.742 81.0671 75.2852 80.0634 74.4943Z" fill="black"/>
<path d="M70.8226 79.1331C68.0521 76.9176 61.0916 69.5223 59.519 67.8111C58.6494 66.8676 57.1925 66.8121 56.249 67.6723C55.3101 68.5371 55.2455 70.0033 56.1103 70.9423C56.1935 71.0301 64.5001 79.9981 67.9318 82.7454C68.3574 83.0829 68.8707 83.2494 69.3748 83.2494C70.0501 83.2494 70.7252 82.9487 71.1831 82.3846C71.9789 81.3854 71.817 79.9285 70.8226 79.1331Z" fill="black"/>
<path d="M61.6188 83.7904C58.3211 81.0109 51.5733 73.8282 50.2552 72.4175C49.3811 71.4833 47.9149 71.4323 46.9853 72.3065C46.0511 73.1806 46.0047 74.642 46.8743 75.5764C48.7706 77.6067 55.227 84.4519 58.6357 87.3285C59.0704 87.6938 59.5976 87.8742 60.1249 87.8742C60.7816 87.8742 61.4385 87.5922 61.8963 87.051C62.7195 86.0705 62.5946 84.6136 61.6188 83.7904Z" fill="black"/>
<path d="M27.0285 26.0704C23.0648 22.3149 7.215 21.0984 2.45132 20.8164C1.79464 20.7841 1.1887 21.0013 0.726269 21.4408C0.263625 21.8754 0 22.4859 0 23.1242V64.7492C0 66.0257 1.03607 67.0618 2.31257 67.0618H16.1876C17.1866 67.0618 18.0746 66.419 18.3844 65.4661C18.7219 64.4301 26.6909 39.9732 27.7407 27.9481C27.8009 27.2451 27.5419 26.5513 27.0285 26.0704ZM14.4994 62.4368H4.62493V25.6033C12.0574 26.1906 20.0771 27.4671 22.9909 28.8823C21.7653 39.0111 16.2199 57.0069 14.4994 62.4368Z" fill="black"/>
<path d="M108.687 25.4368C90.5296 25.4368 80.4563 30.0849 80.0355 30.2791C79.4343 30.5612 78.9856 31.0839 78.8006 31.7176C78.6157 32.3513 78.7081 33.0312 79.0549 33.5953C81.9132 38.1972 90.8626 63.755 92.5831 69.9894C92.8606 70.9929 93.7718 71.6867 94.8124 71.6867H108.687C109.964 71.6867 111 70.6506 111 69.3741V27.7491C111 26.4681 109.964 25.4368 108.687 25.4368ZM106.375 67.0618H96.5422C94.35 59.9207 87.8749 41.3004 84.2628 33.6046C87.7916 32.4068 95.3722 30.3485 106.375 30.0897V67.0618Z" fill="black"/>
</svg>
