<svg id="Capa_1" enable-background="new 0 0 512.001 512.001" height="256" viewBox="0 0 512.001 512.001" width="512" xmlns="http://www.w3.org/2000/svg"><g><path d="m256 361c74.439 0 135-60.561 135-135s-60.56-135-135-135-135 60.561-135 135 60.561 135 135 135zm0-240c57.897 0 105 47.103 105 105s-47.103 105-105 105-105-47.103-105-105 47.104-105 105-105z"/><path d="m1.121 416.688c2.308 5.633 7.792 9.312 13.879 9.312h71v71c0 6.082 3.673 11.563 9.298 13.874 5.601 2.302 12.071 1.017 16.368-3.327l96.789-97.878 36.939 36.938c2.929 2.929 6.768 4.393 10.606 4.393 3.839 0 7.678-1.464 10.606-4.394l36.939-36.938 96.789 97.878c4.299 4.347 10.771 5.628 16.368 3.327 5.626-2.31 9.298-7.791 9.298-13.873v-71h71c6.087 0 11.571-3.679 13.88-9.312 2.308-5.633.983-12.103-3.354-16.375l-59.327-58.438c3.849-3.664 5.628-9.263 4.156-14.758l-14.001-52.258 38.253-38.254c5.858-5.858 5.858-15.355 0-21.213l-38.253-38.254 14.001-52.258c2.144-8.002-2.604-16.227-10.606-18.371l-52.258-13.999-14.002-52.257c-2.144-8.002-10.367-12.75-18.371-10.607l-52.149 13.973-38.244-39.106c-2.823-2.886-6.688-4.513-10.725-4.513-4.036 0-7.902 1.626-10.724 4.512l-38.244 39.106-52.149-13.973c-8.006-2.144-16.228 2.605-18.371 10.607l-14.002 52.258-52.257 14.002c-8.002 2.144-12.75 10.369-10.606 18.371l14.001 52.258-38.253 38.254c-5.858 5.858-5.858 15.355 0 21.213l38.253 38.254-14.001 52.258c-1.472 5.495.306 11.094 4.156 14.758l-59.329 58.436c-4.337 4.272-5.662 10.741-3.353 16.374zm409.879-20.688c-8.284 0-15 6.716-15 15v49.498l-37.406-37.826c7.514 1.231 14.882-3.414 16.894-10.924l14.002-52.257 26.603-7.128 44.303 43.637zm-343.786-170 33.771-33.771c3.79-3.79 5.27-9.313 3.882-14.489l-12.361-46.134 46.134-12.361c5.176-1.387 9.22-5.43 10.606-10.607l12.361-46.134 46.133 12.361c5.235 1.402 10.818-.127 14.606-4.001l33.654-34.41 33.653 34.412c3.788 3.874 9.37 5.403 14.606 4.001l46.133-12.361 12.361 46.134c1.387 5.177 5.43 9.22 10.606 10.607l46.134 12.361-12.361 46.134c-1.387 5.176.093 10.699 3.882 14.489l33.773 33.769-33.771 33.771c-3.79 3.79-5.27 9.313-3.882 14.489l12.361 46.134-46.134 12.361c-5.176 1.387-9.22 5.43-10.606 10.607l-12.361 46.134-46.133-12.361c-5.177-1.386-10.699.093-14.489 3.882l-33.772 33.77-33.771-33.771c-3.796-3.797-9.321-5.267-14.489-3.882l-46.133 12.361-12.361-46.134c-1.387-5.177-5.43-9.22-10.606-10.607l-46.134-12.361 12.361-46.134c1.387-5.176-.093-10.699-3.882-14.489zm28.692 126.363 26.603 7.128 14.002 52.257c2.012 7.51 9.379 12.155 16.894 10.924l-37.405 37.826v-49.498c0-8.284-6.716-15-15-15h-49.396z"/><path d="m208.711 246.918-6.026 35.132c-.965 5.627 1.348 11.315 5.967 14.671 4.62 3.356 10.743 3.799 15.797 1.142l31.551-16.588 31.551 16.587c5.073 2.668 11.197 2.2 15.797-1.142 4.619-3.356 6.933-9.043 5.967-14.671l-6.026-35.132 25.525-24.881c4.088-3.985 5.56-9.946 3.795-15.376-1.764-5.43-6.458-9.388-12.108-10.209l-35.275-5.126-15.775-31.964c-2.526-5.119-7.741-8.361-13.451-8.361-5.709 0-10.924 3.241-13.451 8.362l-15.775 31.964-35.275 5.126c-5.65.821-10.344 4.779-12.108 10.209-1.765 5.43-.293 11.391 3.795 15.376zm30.181-27.038c4.886-.71 9.109-3.778 11.294-8.206l5.814-11.78 5.814 11.781c2.185 4.427 6.409 7.496 11.294 8.206l13.001 1.889-9.408 9.17c-3.535 3.446-5.148 8.411-4.314 13.277l2.221 12.948-11.628-6.113c-4.37-2.298-9.591-2.297-13.96 0l-11.628 6.113 2.221-12.948c.834-4.866-.779-9.831-4.314-13.277l-9.408-9.17z"/></g></svg>