<svg width="512" height="512" viewBox="0 0 90 90" fill="none" xmlns="http://www.w3.org/2000/svg">
<path d="M50.2734 26.543C51.7297 26.543 52.9102 25.3625 52.9102 23.9062C52.9102 22.45 51.7297 21.2695 50.2734 21.2695C48.8172 21.2695 47.6367 22.45 47.6367 23.9062C47.6367 25.3625 48.8172 26.543 50.2734 26.543Z" fill="black"/>
<path d="M60.8203 26.543C62.2765 26.543 63.457 25.3625 63.457 23.9062C63.457 22.45 62.2765 21.2695 60.8203 21.2695C59.3641 21.2695 58.1836 22.45 58.1836 23.9062C58.1836 25.3625 59.3641 26.543 60.8203 26.543Z" fill="black"/>
<path d="M71.3672 26.543C72.8234 26.543 74.0039 25.3625 74.0039 23.9062C74.0039 22.45 72.8234 21.2695 71.3672 21.2695C69.911 21.2695 68.7305 22.45 68.7305 23.9062C68.7305 25.3625 69.911 26.543 71.3672 26.543Z" fill="black"/>
<path d="M59.2757 84.5508C63.6166 84.5508 67.1484 81.0023 67.1484 76.6406V66.0938C67.1484 64.9594 66.423 63.9524 65.3474 63.5929L49.5645 58.3195C48.7918 58.0614 47.944 58.1748 47.2663 58.6264L40.5545 63.1009C33.3513 59.683 24.8377 51.2448 21.4515 44.1696L25.9244 37.4602C26.376 36.7828 26.4894 35.9344 26.2313 35.1621L20.9579 19.3792C20.5984 18.3034 19.5913 17.5781 18.457 17.5781H7.91016C3.5485 17.5781 0 21.1097 0 25.4508C0 40.0191 6.62414 54.9708 18.174 66.4724C29.7113 77.9614 44.6924 84.5508 59.2757 84.5508ZM7.91016 22.8516H16.5581L20.8208 35.6091L16.2633 42.4452C15.7816 43.1677 15.6865 44.0808 16.0091 44.887C17.7625 49.2704 21.2715 54.2006 25.8894 58.7693C30.477 63.3078 35.4312 66.7784 39.8396 68.5417C40.6455 68.8641 41.5591 68.769 42.2814 68.2875L49.1177 63.73L61.875 67.9927V76.6406C61.875 78.1191 60.7333 79.2773 59.2757 79.2773C31.5176 79.2773 5.27344 53.1186 5.27344 25.4508C5.27344 23.9933 6.43166 22.8516 7.91016 22.8516Z" fill="black"/>
<path d="M49.2645 52.7094C50.2495 53.1176 51.3838 52.8919 52.1379 52.1379L61.9124 42.3633H71.3672C81.6413 42.3633 90 34.0835 90 23.9062C90 13.729 81.6413 5.44922 71.3672 5.44922H50.2734C40.0962 5.44922 31.8164 13.729 31.8164 23.9062C31.8164 33.1884 38.704 40.8922 47.6367 42.1755V50.2734C47.6367 51.3399 48.2792 52.3013 49.2645 52.7094ZM37.0898 23.9062C37.0898 16.6368 43.004 10.7227 50.2734 10.7227H71.3672C78.7335 10.7227 84.7266 16.6368 84.7266 23.9062C84.7266 31.1757 78.7335 37.0898 71.3672 37.0898H60.8203C60.1209 37.0898 59.4503 37.3676 58.956 37.8621L52.9102 43.9079V39.7266C52.9102 38.2704 51.7296 37.0898 50.2734 37.0898C43.004 37.0898 37.0898 31.1757 37.0898 23.9062Z" fill="black"/>
</svg>
