<svg width="512" height="512" viewBox="0 0 90 94" fill="none" xmlns="http://www.w3.org/2000/svg">
<g clip-path="url(#clip0)">
<path d="M45 52.8391C17.9583 52.8391 3.06561 66.0072 3.06561 89.9183C3.06561 91.7858 4.53602 93.2993 6.35026 93.2993H83.6495C85.4638 93.2993 86.9342 91.7858 86.9342 89.9183C86.9344 66.0084 72.0417 52.8391 45 52.8391ZM9.75444 86.5372C11.0464 68.6592 22.8876 59.6013 45 59.6013C67.1124 59.6013 78.9537 68.6592 80.2468 86.5372H9.75444Z" fill="black"/>
<path d="M45 0.657837C32.5784 0.657837 23.2117 10.4934 23.2117 23.5354C23.2117 36.9594 32.9859 47.8791 45 47.8791C57.0141 47.8791 66.7883 36.9594 66.7883 23.5365C66.7883 10.4934 57.4216 0.657837 45 0.657837ZM45 41.1181C36.6077 41.1181 29.781 33.2311 29.781 23.5365C29.781 14.198 36.1818 7.41994 45 7.41994C53.6771 7.41994 60.219 14.3478 60.219 23.5365C60.219 33.2311 53.3923 41.1181 45 41.1181Z" fill="black"/>
</g>
<defs>
<clipPath id="clip0">
<rect width="90" height="92.6415" fill="white" transform="translate(0 0.657837)"/>
</clipPath>
</defs>
</svg>
